<svg width="1423" height="734" viewBox="0 0 1423 734" fill="none" xmlns="http://www.w3.org/2000/svg">
<path d="M345.833 633.986C346.883 634.555 348.115 634.683 349.259 634.343C350.403 634.003 351.365 633.222 351.933 632.173C352.502 631.123 352.63 629.891 352.29 628.747C351.95 627.603 351.169 626.641 350.12 626.072C350.12 626.072 350.12 626.072 350.12 626.072C341.684 621.494 332.554 617.929 323.063 615.905C269.468 604.598 224.794 644.325 176.783 637.3C141.475 634.285 105.837 621.989 95.8766 586.173C91.7098 576.028 92.5599 564.875 100.456 558.346C113.769 546.951 140.462 548.041 149.063 563.041C160.363 582.373 139.647 603.102 121.69 616.021C102.682 629.7 81.2848 640.406 59.5313 649.862C51.1197 653.482 42.5962 656.918 34.1373 659.95C33.0106 660.344 32.0863 661.169 31.5679 662.244C31.0494 663.319 30.9792 664.556 31.3728 665.682C31.7663 666.809 32.5913 667.733 33.6662 668.252C34.7412 668.77 35.9781 668.841 37.1049 668.447C37.1049 668.447 37.1049 668.447 37.1049 668.447C45.964 665.271 54.4996 661.823 63.0953 658.126C85.2552 648.482 107.043 637.635 126.982 623.301C136.858 616.05 146.482 607.92 153.702 597.23C161.161 586.904 164.262 570.761 156.951 558.708C142.747 536.922 112.957 537.034 94.5382 551.566C83.2167 560.631 82.3758 577.847 87.4843 589.424C93.844 606.377 104.665 624.162 122.241 632.86C139.396 641.598 157.851 643.819 175.664 646.23C228.997 652.939 273.488 613.64 321.177 624.705C329.745 626.533 338.038 629.757 345.833 633.986Z" fill="#E4B0B1"/>
<path d="M109.056 477.296C82.432 477.296 61.2693 470.981 45.568 458.352C29.8667 446.064 22.016 428.144 22.016 404.592C22.016 387.525 25.6 371.483 32.768 356.464C40.2773 341.104 50.3467 327.451 62.976 315.504C75.6053 303.557 89.9413 294.171 105.984 287.344C122.368 280.517 139.435 277.104 157.184 277.104C175.275 277.104 189.44 281.2 199.68 289.392C210.261 297.584 215.552 308.677 215.552 322.672C215.552 332.912 208.896 346.224 195.584 362.608C182.272 378.992 175.616 384.453 175.616 378.992C175.616 377.627 176.128 376.261 177.152 374.896C188.075 358.853 193.536 343.835 193.536 329.84C193.536 317.211 189.44 307.141 181.248 299.632C173.397 292.123 162.987 288.368 150.016 288.368C135.68 288.368 121.856 291.952 108.544 299.12C95.5733 305.947 83.968 315.163 73.728 326.768C63.488 338.373 55.4667 351.173 49.664 365.168C43.8613 379.163 40.96 392.987 40.96 406.64C40.96 425.413 46.9333 439.579 58.88 449.136C71.168 459.035 87.2107 463.984 107.008 463.984C127.147 463.984 146.432 460.229 164.864 452.72C183.637 445.552 200.363 435.141 215.04 421.488C232.448 405.104 250.027 381.211 267.776 349.808L312.32 269.424C323.925 250.992 336.043 228.805 348.672 202.864C361.301 176.581 374.613 146.544 388.608 112.752C339.456 112.069 291.669 116.848 245.248 127.088C195.755 137.669 159.061 152.347 135.168 171.12C124.928 178.629 119.808 186.48 119.808 194.672C119.808 201.84 123.733 207.813 131.584 212.592C139.776 217.029 150.016 219.248 162.304 219.248C169.472 219.248 178.005 218.224 187.904 216.176C197.803 214.128 207.36 211.397 216.576 207.984C225.792 204.229 232.789 200.133 237.568 195.696C240.981 192.965 243.371 191.6 244.736 191.6C247.467 191.6 247.979 192.965 246.272 195.696C239.104 204.229 229.717 211.397 218.112 217.2C206.848 223.003 194.901 227.44 182.272 230.512C169.643 233.243 157.867 234.608 146.944 234.608C130.219 234.608 117.077 231.365 107.52 224.88C98.304 218.053 93.696 209.349 93.696 198.768C93.696 186.48 99.84 174.533 112.128 162.928C135.339 140.4 176.811 123.675 236.544 112.752C259.755 108.656 284.672 105.755 311.296 104.048C337.92 102 366.251 101.147 396.288 101.488C403.797 95.0026 410.965 91.76 417.792 91.76C424.619 91.76 427.179 95.344 425.472 102.512C446.976 103.877 468.651 106.608 490.496 110.704C512.683 114.8 532.821 120.603 550.912 128.112C569.344 135.28 584.192 144.325 595.456 155.248C606.72 165.829 612.352 178.459 612.352 193.136C612.352 208.837 607.061 223.856 596.48 238.192C586.24 252.187 572.928 264.645 556.544 275.568C540.501 286.491 523.605 295.195 505.856 301.68C489.472 307.483 471.893 312.091 453.12 315.504C434.688 318.917 416.427 320.624 398.336 320.624C384.683 320.624 371.541 319.6 358.912 317.552C346.624 315.504 335.36 312.261 325.12 307.824C304.299 338.203 286.891 362.949 272.896 382.064C259.243 401.179 248.661 414.491 241.152 422C204.288 458.864 160.256 477.296 109.056 477.296ZM385.536 308.336C398.165 308.336 410.624 307.141 422.912 304.752C435.541 302.021 449.024 298.437 463.36 294C477.696 289.221 492.203 283.248 506.88 276.08C521.557 268.571 535.04 260.208 547.328 250.992C559.616 241.435 569.515 231.365 577.024 220.784C584.533 209.861 588.288 198.939 588.288 188.016C588.288 175.728 583.168 165.147 572.928 156.272C562.688 147.056 549.205 139.547 532.48 133.744C515.755 127.941 497.664 123.504 478.208 120.432C458.752 117.019 439.979 114.8 421.888 113.776L405.504 164.976C399.701 179.653 391.509 196.72 380.928 216.176C370.347 235.632 357.376 257.477 342.016 281.712L330.752 299.12C333.141 300.485 335.701 301.68 338.432 302.704C341.504 303.387 344.747 304.069 348.16 304.752C354.645 306.117 360.96 307.141 367.104 307.824C373.248 308.165 379.392 308.336 385.536 308.336ZM575.304 424.56C567.112 424.56 558.92 421.659 550.728 415.856C542.536 410.053 537.928 403.227 536.904 395.376C533.491 369.093 550.045 337.861 586.568 301.68C622.749 265.499 655.347 247.408 684.36 247.408C692.211 247.408 698.355 249.285 702.792 253.04C705.181 255.429 706.888 258.672 707.912 262.768C709.277 266.864 710.301 268.912 710.984 268.912C712.349 268.912 713.544 268.741 714.568 268.4C715.592 267.717 716.787 267.376 718.152 267.376C722.248 267.376 725.832 268.912 728.904 271.984C731.976 275.056 733.683 277.787 734.024 280.176C734.365 280.859 723.443 297.755 701.256 330.864C679.069 363.291 669 385.307 671.048 396.912C672.755 404.763 676.509 408.688 682.312 408.688C700.061 408.688 732.488 379.333 779.592 320.624C780.616 319.259 781.64 318.576 782.664 318.576C784.371 318.576 785.224 319.771 785.224 322.16C785.224 324.891 783.688 328.304 780.616 332.4C737.267 390.768 703.987 419.952 680.776 419.952C677.704 419.952 674.803 419.44 672.072 418.416C657.053 412.613 649.544 401.349 649.544 384.624C649.544 378.821 650.227 373.019 651.592 367.216L619.848 397.936C610.291 407.493 601.587 414.32 593.736 418.416C586.227 422.512 580.083 424.56 575.304 424.56ZM570.696 413.296C590.493 413.296 617.459 391.621 651.592 348.272L705.864 273.52C703.133 268.741 698.696 266.352 692.552 266.352C671.731 266.352 643.571 283.077 608.072 316.528C571.208 350.661 554.653 378.821 558.408 401.008C560.115 409.2 564.211 413.296 570.696 413.296ZM810.88 423.024C794.837 423.024 782.891 417.733 775.04 407.152C767.531 396.571 761.387 381.893 756.608 363.12C750.464 369.264 746.197 372.336 743.808 372.336C742.101 372.336 741.248 370.971 741.248 368.24C741.248 366.192 742.101 364.315 743.808 362.608C743.808 362.608 748.075 357.317 756.608 346.736C765.483 336.155 780.331 321.307 801.152 302.192L865.664 241.776C874.539 233.243 881.536 226.757 886.656 222.32C892.117 217.883 896.043 215.664 898.432 215.664C909.355 215.664 914.816 219.76 914.816 227.952C914.816 232.048 912.597 236.827 908.16 242.288C904.747 246.384 902.187 249.627 900.48 252.016C899.115 254.064 898.261 255.259 897.92 255.6C891.776 266.181 886.144 285.125 881.024 312.432C877.269 332.571 874.027 349.125 871.296 362.096C868.565 375.067 866.347 384.453 864.64 390.256C878.976 389.915 893.141 385.477 907.136 376.944C921.131 368.411 936.149 354.416 952.192 334.96C952.875 334.277 953.899 333.253 955.264 331.888C956.629 330.523 957.995 329.84 959.36 329.84C961.408 329.84 962.432 330.693 962.432 332.4C962.432 334.107 961.92 335.813 960.896 337.52C959.872 339.227 958.848 340.763 957.824 342.128C947.243 354.757 937.344 365.168 928.128 373.36C918.912 381.211 909.184 387.525 898.944 392.304C888.704 396.741 876.587 400.496 862.592 403.568L846.208 414.32C841.771 417.392 836.48 419.611 830.336 420.976C824.192 422.341 817.707 423.024 810.88 423.024ZM817.024 396.912C824.875 396.912 831.36 395.035 836.48 391.28C840.235 389.232 843.819 383.6 847.232 374.384C850.987 364.827 854.571 353.051 857.984 339.056C860.715 327.109 862.763 315.504 864.128 304.24C865.835 292.635 867.371 281.541 868.736 270.96L870.784 253.552C862.933 259.355 853.035 267.717 841.088 278.64C829.141 289.563 817.365 300.997 805.76 312.944C794.155 324.891 786.645 333.765 783.232 339.568C779.819 345.029 777.941 349.125 777.6 351.856C776.235 365.509 779.477 376.432 787.328 384.624C795.52 392.816 805.419 396.912 817.024 396.912ZM967.744 425.072C956.821 425.072 948.117 422.512 941.632 417.392C935.488 411.931 932.416 402.373 932.416 388.72C932.416 380.869 934.805 370.971 939.584 359.024C944.363 346.736 950.336 333.595 957.504 319.6C964.672 305.605 971.84 291.781 979.008 278.128C974.571 279.152 970.645 279.664 967.232 279.664C956.992 279.664 951.872 275.739 951.872 267.888C951.872 264.133 953.237 261.232 955.968 259.184C959.04 257.136 961.771 255.941 964.16 255.6C964.16 255.6 964.501 255.6 965.184 255.6C966.208 255.6 967.403 255.429 968.768 255.088H998.464C1004.61 247.237 1010.92 238.875 1017.41 230C1026.62 218.395 1033.96 211.568 1039.42 209.52H1040.96C1043.35 209.52 1046.76 210.715 1051.2 213.104C1056.66 216.176 1059.39 219.248 1059.39 222.32C1059.39 226.757 1051.2 238.192 1034.82 256.624C1037.89 256.965 1042.33 257.136 1048.13 257.136C1053.93 257.136 1061.1 257.136 1069.63 257.136C1073.73 257.136 1079.53 257.136 1087.04 257.136C1094.89 257.136 1102.91 257.136 1111.1 257.136C1119.64 256.795 1126.98 256.624 1133.12 256.624C1139.26 256.283 1142.68 256.112 1143.36 256.112C1144.38 256.453 1144.9 256.965 1144.9 257.648C1144.9 260.72 1124.76 264.816 1084.48 269.936C1061.61 273.008 1044.03 275.397 1031.74 277.104C1019.8 278.811 1013.31 279.835 1012.29 280.176C1007.51 284.272 1001.71 291.269 994.88 301.168C988.053 311.067 981.227 322.16 974.4 334.448C967.573 346.736 961.771 358.512 956.992 369.776C952.555 380.699 950.336 389.232 950.336 395.376C950.336 400.837 952.384 405.445 956.48 409.2C960.576 412.613 967.232 414.32 976.448 414.32C982.592 414.32 989.931 412.955 998.464 410.224C1007 407.493 1015.02 404.421 1022.53 401.008C1030.38 397.253 1036.01 394.352 1039.42 392.304C1048.3 386.843 1058.03 379.675 1068.61 370.8C1079.53 361.584 1090.28 351.173 1100.86 339.568C1105.64 334.789 1108.89 332.4 1110.59 332.4C1111.62 332.4 1112.13 333.083 1112.13 334.448C1112.13 337.179 1109.57 341.616 1104.45 347.76C1096.26 357.659 1087.04 367.216 1076.8 376.432C1066.9 385.307 1055.81 393.499 1043.52 401.008C1029.53 409.541 1016.04 415.685 1003.07 419.44C990.443 423.195 978.667 425.072 967.744 425.072ZM1114.11 428.656C1103.19 428.656 1093.29 425.243 1084.42 418.416C1075.54 411.248 1071.1 401.861 1071.1 390.256C1071.1 366.021 1085.95 338.373 1115.65 307.312C1146.03 275.909 1173.16 260.208 1197.06 260.208C1204.91 260.208 1211.22 262.427 1216 266.864C1221.12 270.96 1223.68 276.08 1223.68 282.224C1223.68 301.339 1208.49 320.112 1178.11 338.544C1151.15 354.928 1128.45 363.12 1110.02 363.12C1107.29 363.12 1104.9 362.779 1102.85 362.096C1097.73 371.312 1095.17 381.04 1095.17 391.28C1095.17 409.029 1103.53 417.904 1120.26 417.904C1137.32 417.904 1159.34 406.469 1186.3 383.6C1207.13 366.875 1224.87 349.125 1239.55 330.352C1242.62 326.256 1245.35 324.208 1247.74 324.208C1249.79 324.208 1250.82 325.232 1250.82 327.28C1250.82 329.328 1249.45 332.229 1246.72 335.984C1237.16 348.613 1226.92 360.219 1216 370.8C1205.08 381.381 1193.3 391.109 1180.67 399.984C1154.39 419.099 1132.2 428.656 1114.11 428.656ZM1117.18 351.856C1130.15 351.856 1147.05 345.371 1167.87 332.4C1174.7 327.621 1181.35 322.331 1187.84 316.528C1194.67 310.384 1200.13 304.24 1204.22 298.096C1208.66 291.952 1210.88 286.491 1210.88 281.712C1210.88 277.275 1207.3 275.056 1200.13 275.056C1189.89 275.056 1175.55 282.736 1157.12 298.096C1148.25 305.605 1139.71 313.797 1131.52 322.672C1123.33 331.547 1116.33 340.933 1110.53 350.832C1112.58 351.515 1114.79 351.856 1117.18 351.856ZM1258.41 423.024C1248.51 423.024 1239.3 420.635 1230.76 415.856C1222.23 410.736 1217.96 402.373 1217.96 390.768C1217.96 374.725 1223.6 355.611 1234.86 333.424C1246.47 311.237 1259.61 288.197 1274.28 264.304C1314.22 199.451 1342.55 167.024 1359.28 167.024C1362.69 167.024 1366.1 168.389 1369.52 171.12C1373.27 173.509 1375.32 176.24 1375.66 179.312L1339.82 227.44C1325.83 246.213 1313.2 263.621 1301.93 279.664C1290.67 295.365 1280.94 309.531 1272.75 322.16C1268.65 328.645 1264.04 335.984 1258.92 344.176C1253.8 352.368 1249.2 360.901 1245.1 369.776C1241.35 378.309 1239.47 387.013 1239.47 395.888C1239.47 399.984 1240.66 403.739 1243.05 407.152C1245.44 410.224 1249.71 411.76 1255.85 411.76C1266.77 411.76 1281.11 405.957 1298.86 394.352C1316.61 382.405 1334.19 366.021 1351.6 345.2C1353.3 343.152 1355.18 341.275 1357.23 339.568C1359.28 337.861 1360.98 337.008 1362.35 337.008C1364.05 337.008 1364.91 338.032 1364.91 340.08C1364.91 341.104 1363.71 343.152 1361.32 346.224C1359.28 348.955 1357.57 351.173 1356.2 352.88L1343.92 366.704C1337.09 374.213 1328.9 382.405 1319.34 391.28C1310.12 400.155 1300.23 407.664 1289.64 413.808C1279.4 419.952 1268.99 423.024 1258.41 423.024Z" fill="#8E7CA4"/>
<path d="M523.449 513.98C523.199 515.147 522.658 516.064 521.824 516.73C520.991 517.397 520.074 517.73 519.074 517.73C517.574 517.73 516.366 517.272 515.449 516.355C514.533 515.355 514.074 514.23 514.074 512.98C514.074 511.73 514.199 510.522 514.449 509.355C514.699 508.105 514.824 506.897 514.824 505.73C514.824 499.647 512.949 494.189 509.199 489.355C505.449 484.522 500.116 480.48 493.199 477.23C486.366 473.897 478.033 471.355 468.199 469.605C458.366 467.855 447.408 466.98 435.324 466.98C426.074 466.98 416.741 467.605 407.324 468.855C397.991 470.022 388.991 471.772 380.324 474.105C371.741 476.355 363.699 479.23 356.199 482.73C348.699 486.147 342.158 490.147 336.574 494.73C331.074 499.23 326.741 504.272 323.574 509.855C320.408 515.355 318.824 521.397 318.824 527.98C318.824 533.064 319.908 537.564 322.074 541.48C324.324 545.314 327.366 548.689 331.199 551.605C335.033 554.439 339.533 556.897 344.699 558.98C349.949 560.98 355.616 562.689 361.699 564.105C367.783 565.439 374.116 566.564 380.699 567.48C387.283 568.314 393.908 569.022 400.574 569.605L419.824 571.23C429.408 572.064 437.991 572.939 445.574 573.855C453.158 574.772 459.824 575.939 465.574 577.355C475.158 579.772 482.241 583.23 486.824 587.73C491.408 592.23 493.699 598.23 493.699 605.73C493.699 612.98 491.699 619.355 487.699 624.855C483.699 630.355 478.241 634.98 471.324 638.73C464.408 642.48 456.324 645.314 447.074 647.23C437.824 649.147 427.908 650.105 417.324 650.105C405.824 650.105 395.699 649.314 386.949 647.73C378.283 646.23 370.991 644.564 365.074 642.73C359.241 640.814 354.783 639.064 351.699 637.48C348.616 635.897 346.949 635.022 346.699 634.855C345.199 634.022 344.449 632.689 344.449 630.855C344.449 629.439 344.949 628.314 345.949 627.48C346.949 626.564 348.033 626.105 349.199 626.105C350.116 626.105 350.949 626.355 351.699 626.855C351.783 626.855 353.199 627.605 355.949 629.105C358.783 630.522 362.949 632.105 368.449 633.855C374.033 635.605 380.908 637.189 389.074 638.605C397.241 640.022 406.741 640.73 417.574 640.73C428.324 640.73 437.824 639.855 446.074 638.105C454.324 636.355 461.241 633.939 466.824 630.855C472.491 627.689 476.741 624.022 479.574 619.855C482.491 615.605 483.949 611.022 483.949 606.105C483.949 603.189 483.408 600.689 482.324 598.605C481.324 596.439 479.908 594.605 478.074 593.105C476.241 591.522 474.033 590.189 471.449 589.105C468.949 588.022 466.199 587.105 463.199 586.355C460.033 585.522 456.616 584.814 452.949 584.23C449.366 583.647 445.658 583.147 441.824 582.73C437.991 582.314 434.116 581.939 430.199 581.605C426.366 581.272 422.574 580.939 418.824 580.605L399.574 578.98C384.408 577.73 371.158 575.814 359.824 573.23C348.574 570.564 339.199 567.189 331.699 563.105C324.199 558.939 318.574 553.98 314.824 548.23C311.074 542.48 309.199 535.772 309.199 528.105C309.199 520.272 310.949 513.105 314.449 506.605C318.033 500.022 322.866 494.105 328.949 488.855C335.116 483.605 342.283 479.064 350.449 475.23C358.699 471.314 367.491 468.064 376.824 465.48C386.158 462.897 395.824 460.98 405.824 459.73C415.824 458.397 425.658 457.73 435.324 457.73C447.408 457.73 457.908 458.48 466.824 459.98C475.824 461.397 483.491 463.272 489.824 465.605C496.241 467.855 501.491 470.439 505.574 473.355C509.658 476.272 512.949 479.147 515.449 481.98C521.366 488.897 524.324 496.772 524.324 505.605C524.324 508.522 524.033 511.314 523.449 513.98ZM631.699 520.105C631.699 521.439 631.241 522.522 630.324 523.355C629.408 524.105 628.283 524.48 626.949 524.48H563.574V525.855C563.574 530.939 563.199 536.355 562.449 542.105C561.699 547.855 560.658 553.605 559.324 559.355C558.074 565.022 556.616 570.564 554.949 575.98C553.366 581.397 551.699 586.397 549.949 590.98C548.283 595.564 546.616 599.564 544.949 602.98C543.283 606.314 541.783 608.814 540.449 610.48C541.533 614.314 542.824 617.897 544.324 621.23C545.824 624.48 547.491 627.355 549.324 629.855C551.241 632.272 553.283 634.189 555.449 635.605C557.616 637.022 559.949 637.73 562.449 637.73C565.366 637.73 568.241 636.522 571.074 634.105C573.991 631.605 576.658 628.689 579.074 625.355C581.574 621.939 583.741 618.522 585.574 615.105C587.491 611.605 588.866 608.814 589.699 606.73C590.533 604.73 591.991 603.73 594.074 603.73C595.491 603.73 596.616 604.23 597.449 605.23C598.366 606.23 598.824 607.314 598.824 608.48C598.824 609.064 598.699 609.647 598.449 610.23C598.199 610.814 597.574 612.147 596.574 614.23C595.658 616.314 594.408 618.73 592.824 621.48C591.324 624.23 589.533 627.147 587.449 630.23C585.449 633.23 583.158 635.98 580.574 638.48C578.074 640.98 575.366 643.064 572.449 644.73C569.533 646.397 566.449 647.23 563.199 647.23C557.449 647.23 552.283 645.355 547.699 641.605C543.116 637.855 539.199 632.605 535.949 625.855C532.783 619.105 530.366 611.105 528.699 601.855C527.033 592.605 526.199 582.48 526.199 571.48C526.199 568.73 526.241 565.522 526.324 561.855C526.408 558.105 526.574 554.189 526.824 550.105C527.074 545.939 527.449 541.689 527.949 537.355C528.449 532.939 529.116 528.647 529.949 524.48H485.074C483.741 524.48 482.616 524.105 481.699 523.355C480.783 522.522 480.324 521.439 480.324 520.105C480.324 518.772 480.783 517.73 481.699 516.98C482.616 516.147 483.741 515.73 485.074 515.73H532.074C532.908 512.73 533.866 509.98 534.949 507.48C536.116 504.98 537.408 502.814 538.824 500.98C540.324 499.147 541.949 497.73 543.699 496.73C545.533 495.647 547.533 495.105 549.699 495.105C551.783 495.105 553.574 495.647 555.074 496.73C556.658 497.73 557.991 499.147 559.074 500.98C560.158 502.814 560.991 504.98 561.574 507.48C562.241 509.98 562.741 512.73 563.074 515.73H626.949C628.283 515.73 629.408 516.147 630.324 516.98C631.241 517.73 631.699 518.772 631.699 520.105ZM537.574 597.98C540.074 592.48 542.324 586.564 544.324 580.23C546.408 573.814 548.158 567.355 549.574 560.855C551.074 554.355 552.199 547.98 552.949 541.73C553.783 535.48 554.199 529.73 554.199 524.48H539.449C538.283 529.647 537.324 536.064 536.574 543.73C535.908 551.314 535.574 560.564 535.574 571.48C535.574 577.564 535.741 582.689 536.074 586.855C536.408 590.939 536.908 594.647 537.574 597.98ZM549.199 504.48C548.449 504.48 547.366 505.314 545.949 506.98C544.533 508.564 543.116 511.48 541.699 515.73H553.699C553.283 512.23 552.658 509.48 551.824 507.48C551.074 505.48 550.199 504.48 549.199 504.48ZM539.574 606.98V607.105V606.98ZM610.574 547.105C610.574 550.272 609.449 552.98 607.199 555.23C605.033 557.397 602.366 558.48 599.199 558.48C596.033 558.48 593.324 557.397 591.074 555.23C588.908 552.98 587.824 550.272 587.824 547.105C587.824 545.522 588.116 544.064 588.699 542.73C589.283 541.314 590.074 540.105 591.074 539.105C592.158 538.022 593.366 537.189 594.699 536.605C596.116 536.022 597.616 535.73 599.199 535.73C600.783 535.73 602.241 536.022 603.574 536.605C604.991 537.189 606.199 538.022 607.199 539.105C608.283 540.105 609.116 541.314 609.699 542.73C610.283 544.064 610.574 545.522 610.574 547.105ZM590.324 620.355C590.324 608.355 591.074 596.397 592.574 584.48C592.741 583.314 593.241 582.314 594.074 581.48C594.991 580.564 596.158 580.105 597.574 580.105C598.824 580.105 599.866 580.605 600.699 581.605C601.533 582.522 601.949 583.605 601.949 584.855C601.949 585.355 601.824 586.855 601.574 589.355C601.408 591.855 601.158 594.855 600.824 598.355C600.574 601.772 600.324 605.439 600.074 609.355C599.908 613.189 599.824 616.73 599.824 619.98C599.824 624.397 600.241 627.98 601.074 630.73C601.991 633.397 603.116 635.48 604.449 636.98C605.866 638.48 607.324 639.48 608.824 639.98C610.408 640.48 611.908 640.73 613.324 640.73C615.658 640.73 618.074 639.897 620.574 638.23C623.074 636.564 625.616 634.23 628.199 631.23C630.866 628.23 633.533 624.647 636.199 620.48C638.866 616.23 641.491 611.522 644.074 606.355C644.491 605.522 645.074 604.897 645.824 604.48C646.574 603.98 647.408 603.73 648.324 603.73C649.658 603.73 650.741 604.23 651.574 605.23C652.491 606.23 652.949 607.314 652.949 608.48C652.949 609.314 652.783 610.022 652.449 610.605C651.449 612.522 650.199 614.855 648.699 617.605C647.199 620.355 645.491 623.189 643.574 626.105C641.658 629.022 639.533 631.939 637.199 634.855C634.949 637.689 632.533 640.272 629.949 642.605C627.366 644.855 624.658 646.689 621.824 648.105C618.991 649.522 616.116 650.23 613.199 650.23C609.449 650.23 606.158 649.439 603.324 647.855C600.491 646.272 598.074 644.147 596.074 641.48C594.158 638.814 592.699 635.689 591.699 632.105C590.783 628.439 590.324 624.522 590.324 620.355ZM603.574 547.105C603.574 545.939 603.116 544.939 602.199 544.105C601.366 543.189 600.366 542.73 599.199 542.73C598.033 542.73 597.033 543.189 596.199 544.105C595.366 544.939 594.949 545.939 594.949 547.105C594.949 548.272 595.366 549.272 596.199 550.105C597.033 550.939 598.033 551.355 599.199 551.355C600.366 551.355 601.366 550.939 602.199 550.105C603.116 549.272 603.574 548.272 603.574 547.105ZM745.199 520.105C745.199 521.439 744.741 522.522 743.824 523.355C742.908 524.105 741.783 524.48 740.449 524.48H677.074V525.855C677.074 530.939 676.699 536.355 675.949 542.105C675.199 547.855 674.158 553.605 672.824 559.355C671.574 565.022 670.116 570.564 668.449 575.98C666.866 581.397 665.199 586.397 663.449 590.98C661.783 595.564 660.116 599.564 658.449 602.98C656.783 606.314 655.283 608.814 653.949 610.48C655.033 614.314 656.324 617.897 657.824 621.23C659.324 624.48 660.991 627.355 662.824 629.855C664.741 632.272 666.783 634.189 668.949 635.605C671.116 637.022 673.449 637.73 675.949 637.73C678.866 637.73 681.741 636.522 684.574 634.105C687.491 631.605 690.158 628.689 692.574 625.355C695.074 621.939 697.241 618.522 699.074 615.105C700.991 611.605 702.366 608.814 703.199 606.73C704.033 604.73 705.491 603.73 707.574 603.73C708.991 603.73 710.116 604.23 710.949 605.23C711.866 606.23 712.324 607.314 712.324 608.48C712.324 609.064 712.199 609.647 711.949 610.23C711.699 610.814 711.074 612.147 710.074 614.23C709.158 616.314 707.908 618.73 706.324 621.48C704.824 624.23 703.033 627.147 700.949 630.23C698.949 633.23 696.658 635.98 694.074 638.48C691.574 640.98 688.866 643.064 685.949 644.73C683.033 646.397 679.949 647.23 676.699 647.23C670.949 647.23 665.783 645.355 661.199 641.605C656.616 637.855 652.699 632.605 649.449 625.855C646.283 619.105 643.866 611.105 642.199 601.855C640.533 592.605 639.699 582.48 639.699 571.48C639.699 568.73 639.741 565.522 639.824 561.855C639.908 558.105 640.074 554.189 640.324 550.105C640.574 545.939 640.949 541.689 641.449 537.355C641.949 532.939 642.616 528.647 643.449 524.48H598.574C597.241 524.48 596.116 524.105 595.199 523.355C594.283 522.522 593.824 521.439 593.824 520.105C593.824 518.772 594.283 517.73 595.199 516.98C596.116 516.147 597.241 515.73 598.574 515.73H645.574C646.408 512.73 647.366 509.98 648.449 507.48C649.616 504.98 650.908 502.814 652.324 500.98C653.824 499.147 655.449 497.73 657.199 496.73C659.033 495.647 661.033 495.105 663.199 495.105C665.283 495.105 667.074 495.647 668.574 496.73C670.158 497.73 671.491 499.147 672.574 500.98C673.658 502.814 674.491 504.98 675.074 507.48C675.741 509.98 676.241 512.73 676.574 515.73H740.449C741.783 515.73 742.908 516.147 743.824 516.98C744.741 517.73 745.199 518.772 745.199 520.105ZM651.074 597.98C653.574 592.48 655.824 586.564 657.824 580.23C659.908 573.814 661.658 567.355 663.074 560.855C664.574 554.355 665.699 547.98 666.449 541.73C667.283 535.48 667.699 529.73 667.699 524.48H652.949C651.783 529.647 650.824 536.064 650.074 543.73C649.408 551.314 649.074 560.564 649.074 571.48C649.074 577.564 649.241 582.689 649.574 586.855C649.908 590.939 650.408 594.647 651.074 597.98ZM662.699 504.48C661.949 504.48 660.866 505.314 659.449 506.98C658.033 508.564 656.616 511.48 655.199 515.73H667.199C666.783 512.23 666.158 509.48 665.324 507.48C664.574 505.48 663.699 504.48 662.699 504.48ZM653.074 606.98V607.105V606.98ZM785.449 610.605C784.949 611.522 784.074 613.189 782.824 615.605C781.658 618.022 780.033 620.772 777.949 623.855C775.949 626.855 773.533 629.98 770.699 633.23C767.866 636.48 764.616 639.48 760.949 642.23C757.283 644.897 753.158 647.105 748.574 648.855C744.074 650.605 739.158 651.48 733.824 651.48C729.074 651.48 724.866 650.605 721.199 648.855C717.533 647.189 714.408 644.814 711.824 641.73C709.241 638.564 707.283 634.855 705.949 630.605C704.616 626.355 703.949 621.647 703.949 616.48C703.949 611.48 704.658 606.814 706.074 602.48C707.491 598.064 709.408 594.23 711.824 590.98C714.324 587.73 717.199 585.189 720.449 583.355C723.699 581.439 727.158 580.48 730.824 580.48C733.574 580.48 736.074 580.98 738.324 581.98C740.574 582.897 742.449 584.147 743.949 585.73C745.533 587.314 746.741 589.064 747.574 590.98C748.491 592.897 748.949 594.814 748.949 596.73C748.949 598.564 748.699 600.272 748.199 601.855C747.783 603.439 747.199 604.855 746.449 606.105C745.783 607.272 744.991 608.23 744.074 608.98C743.158 609.647 742.241 609.98 741.324 609.98C739.908 609.98 738.741 609.522 737.824 608.605C736.991 607.689 736.574 606.564 736.574 605.23C736.574 604.564 736.699 603.98 736.949 603.48C737.283 602.98 737.616 602.48 737.949 601.98C738.366 601.397 738.699 600.73 738.949 599.98C739.283 599.147 739.449 598.105 739.449 596.855C739.449 595.105 738.616 593.522 736.949 592.105C735.366 590.689 733.324 589.98 730.824 589.98C728.491 589.98 726.241 590.689 724.074 592.105C721.991 593.522 720.158 595.439 718.574 597.855C716.991 600.189 715.699 602.98 714.699 606.23C713.783 609.397 713.324 612.772 713.324 616.355C713.324 619.772 713.741 623.022 714.574 626.105C715.408 629.189 716.658 631.939 718.324 634.355C719.991 636.689 722.074 638.564 724.574 639.98C727.158 641.397 730.199 642.105 733.699 642.105C738.199 642.105 742.366 641.314 746.199 639.73C750.033 638.064 753.533 635.98 756.699 633.48C759.866 630.98 762.658 628.272 765.074 625.355C767.491 622.355 769.533 619.564 771.199 616.98C772.949 614.314 774.283 612.022 775.199 610.105C776.199 608.105 776.783 606.855 776.949 606.355C777.283 605.522 777.824 604.897 778.574 604.48C779.408 603.98 780.283 603.73 781.199 603.73C782.616 603.73 783.741 604.23 784.574 605.23C785.491 606.23 785.949 607.355 785.949 608.605C785.949 609.105 785.783 609.772 785.449 610.605ZM786.824 634.605C788.158 631.772 789.699 628.73 791.449 625.48C793.199 622.147 795.074 618.772 797.074 615.355C799.074 611.855 801.199 608.397 803.449 604.98C805.699 601.564 808.033 598.355 810.449 595.355C812.866 592.439 815.283 590.355 817.699 589.105C820.199 587.772 822.533 587.105 824.699 587.105C826.866 587.105 828.741 587.564 830.324 588.48C831.991 589.314 833.324 590.48 834.324 591.98C835.408 593.48 836.199 595.23 836.699 597.23C837.283 599.23 837.574 601.397 837.574 603.73C837.574 605.647 837.366 608.23 836.949 611.48C836.616 614.647 836.449 617.98 836.449 621.48C836.449 623.48 836.533 625.48 836.699 627.48C836.949 629.397 837.324 631.147 837.824 632.73C838.408 634.23 839.241 635.48 840.324 636.48C841.408 637.397 842.824 637.855 844.574 637.855C846.574 637.855 848.574 637.314 850.574 636.23C852.574 635.064 854.533 633.564 856.449 631.73C858.366 629.814 860.199 627.73 861.949 625.48C863.699 623.147 865.283 620.855 866.699 618.605C868.116 616.272 869.366 614.064 870.449 611.98C871.533 609.814 872.408 608.022 873.074 606.605C873.908 604.689 875.366 603.73 877.449 603.73C878.866 603.73 879.991 604.23 880.824 605.23C881.658 606.23 882.074 607.314 882.074 608.48C882.074 609.147 881.949 609.772 881.699 610.355C881.366 611.022 880.699 612.397 879.699 614.48C878.783 616.564 877.491 618.98 875.824 621.73C874.241 624.48 872.366 627.355 870.199 630.355C868.033 633.355 865.616 636.147 862.949 638.73C860.366 641.23 857.533 643.314 854.449 644.98C851.449 646.564 848.283 647.355 844.949 647.355C841.116 647.355 838.033 646.564 835.699 644.98C833.366 643.314 831.533 641.23 830.199 638.73C828.949 636.23 828.074 633.439 827.574 630.355C827.158 627.272 826.949 624.272 826.949 621.355C826.949 619.855 826.991 618.272 827.074 616.605C827.241 614.855 827.408 613.147 827.574 611.48C827.741 609.814 827.866 608.272 827.949 606.855C828.116 605.355 828.199 604.105 828.199 603.105C828.199 600.522 827.824 598.772 827.074 597.855C826.408 596.939 825.616 596.48 824.699 596.48C823.366 596.48 821.824 597.272 820.074 598.855C818.408 600.355 816.616 602.355 814.699 604.855C812.866 607.355 810.991 610.189 809.074 613.355C807.241 616.439 805.449 619.522 803.699 622.605C801.949 625.689 800.366 628.647 798.949 631.48C797.533 634.23 796.366 636.522 795.449 638.355C793.699 641.855 791.908 644.189 790.074 645.355C788.324 646.605 786.741 647.23 785.324 647.23C782.741 647.23 780.741 646.23 779.324 644.23C777.991 642.147 777.324 639.647 777.324 636.73V628.855C777.324 613.105 777.324 598.105 777.324 583.855C777.408 569.522 777.616 556.23 777.949 543.98C778.366 531.647 778.991 520.522 779.824 510.605C780.741 500.605 782.074 492.105 783.824 485.105C785.574 478.022 787.783 472.564 790.449 468.73C793.199 464.897 796.616 462.98 800.699 462.98C804.199 462.98 807.158 463.939 809.574 465.855C811.991 467.772 813.949 470.397 815.449 473.73C816.949 476.98 818.033 480.814 818.699 485.23C819.366 489.564 819.699 494.147 819.699 498.98C819.699 508.814 818.783 518.48 816.949 527.98C815.199 537.397 812.824 546.605 809.824 555.605C806.824 564.605 803.324 573.397 799.324 581.98C795.324 590.48 791.116 598.772 786.699 606.855C786.699 608.355 786.699 610.147 786.699 612.23C786.699 614.314 786.699 616.397 786.699 618.48C786.699 620.564 786.699 622.522 786.699 624.355C786.699 626.189 786.699 627.647 786.699 628.73L786.824 634.605ZM786.824 588.48C790.324 580.814 793.491 573.355 796.324 566.105C799.241 558.772 801.699 551.48 803.699 544.23C805.783 536.98 807.408 529.647 808.574 522.23C809.741 514.73 810.324 506.939 810.324 498.855C810.324 497.522 810.241 495.397 810.074 492.48C809.991 489.564 809.616 486.605 808.949 483.605C808.366 480.605 807.408 477.98 806.074 475.73C804.824 473.48 803.033 472.355 800.699 472.355C798.866 472.355 797.283 473.605 795.949 476.105C794.616 478.522 793.449 481.855 792.449 486.105C791.449 490.272 790.616 495.147 789.949 500.73C789.283 506.314 788.741 512.23 788.324 518.48C787.908 524.73 787.574 531.147 787.324 537.73C787.158 544.314 787.033 550.73 786.949 556.98C786.866 563.147 786.824 568.939 786.824 574.355C786.824 579.772 786.824 584.48 786.824 588.48ZM888.199 631.48C889.949 633.897 892.199 635.855 894.949 637.355C897.699 638.772 901.074 639.48 905.074 639.48C909.158 639.48 912.866 638.522 916.199 636.605C919.533 634.605 922.574 632.022 925.324 628.855C928.074 625.689 930.533 622.147 932.699 618.23C934.866 614.314 936.824 610.397 938.574 606.48C938.991 605.564 939.574 604.897 940.324 604.48C941.074 603.98 941.908 603.73 942.824 603.73C944.241 603.73 945.366 604.23 946.199 605.23C947.116 606.23 947.574 607.314 947.574 608.48C947.574 608.897 947.533 609.272 947.449 609.605C947.366 609.855 947.241 610.147 947.074 610.48C941.324 623.147 935.033 632.689 928.199 639.105C921.449 645.522 913.783 648.814 905.199 648.98C899.699 648.98 894.949 647.897 890.949 645.73C886.949 643.647 883.658 640.939 881.074 637.605C878.491 634.189 876.574 630.355 875.324 626.105C874.074 621.855 873.449 617.605 873.449 613.355C873.449 609.105 873.949 605.189 874.949 601.605C876.033 598.022 877.533 594.897 879.449 592.23C881.449 589.564 883.783 587.48 886.449 585.98C889.199 584.48 892.199 583.73 895.449 583.73C897.366 583.73 899.241 584.147 901.074 584.98C902.991 585.73 904.699 586.855 906.199 588.355C907.699 589.772 908.908 591.522 909.824 593.605C910.741 595.689 911.199 598.064 911.199 600.73C911.199 604.147 910.616 607.355 909.449 610.355C908.283 613.355 906.658 616.147 904.574 618.73C902.574 621.314 900.158 623.689 897.324 625.855C894.491 628.022 891.449 629.897 888.199 631.48ZM884.449 623.355C887.033 622.272 889.366 620.897 891.449 619.23C893.616 617.564 895.449 615.73 896.949 613.73C898.449 611.73 899.616 609.647 900.449 607.48C901.283 605.23 901.699 602.98 901.699 600.73C901.699 598.23 901.074 596.355 899.824 595.105C898.574 593.772 897.116 593.105 895.449 593.105C893.199 593.105 891.283 593.73 889.699 594.98C888.116 596.23 886.824 597.855 885.824 599.855C884.824 601.855 884.074 604.105 883.574 606.605C883.158 609.022 882.949 611.439 882.949 613.855C882.949 615.355 883.074 616.939 883.324 618.605C883.658 620.272 884.033 621.855 884.449 623.355ZM952.574 598.98C952.074 600.314 951.449 601.814 950.699 603.48C950.033 605.147 949.241 606.897 948.324 608.73C947.574 610.147 946.783 611.272 945.949 612.105C945.199 612.855 944.199 613.23 942.949 613.23C941.533 613.23 940.408 612.814 939.574 611.98C938.741 611.064 938.324 610.022 938.324 608.855C938.324 608.439 938.366 608.105 938.449 607.855C938.533 607.522 938.741 607.022 939.074 606.355C941.241 602.189 942.824 598.564 943.824 595.48C944.908 592.314 945.783 589.022 946.449 585.605C945.866 583.689 945.449 582.064 945.199 580.73C944.949 579.397 944.824 578.022 944.824 576.605C944.824 573.855 945.408 571.647 946.574 569.98C947.741 568.23 949.366 567.355 951.449 567.355C953.366 567.355 954.866 568.189 955.949 569.855C957.116 571.522 957.699 573.564 957.699 575.98C957.699 577.314 957.574 578.647 957.324 579.98C957.074 581.314 956.741 582.98 956.324 584.98C958.241 589.73 960.158 593.939 962.074 597.605C963.991 601.272 965.699 604.647 967.199 607.73C968.699 610.73 969.908 613.564 970.824 616.23C971.824 618.897 972.324 621.564 972.324 624.23C972.324 627.73 971.616 631.064 970.199 634.23C968.783 637.397 966.449 640.064 963.199 642.23C963.616 642.314 964.033 642.355 964.449 642.355C964.866 642.355 965.283 642.355 965.699 642.355C970.449 642.355 974.824 641.272 978.824 639.105C982.824 636.939 986.408 634.147 989.574 630.73C992.824 627.23 995.699 623.397 998.199 619.23C1000.7 614.98 1002.87 610.772 1004.7 606.605C1005.53 604.689 1006.7 603.73 1008.2 603.73C1009.62 603.73 1010.7 604.23 1011.45 605.23C1012.28 606.23 1012.7 607.314 1012.7 608.48C1012.7 609.147 1012.57 609.772 1012.32 610.355C1011.41 612.605 1010.2 615.189 1008.7 618.105C1007.28 620.939 1005.53 623.897 1003.45 626.98C1001.45 629.98 999.116 632.939 996.449 635.855C993.783 638.772 990.783 641.397 987.449 643.73C984.199 645.98 980.616 647.772 976.699 649.105C972.783 650.522 968.491 651.23 963.824 651.23C958.241 651.23 953.033 650.23 948.199 648.23C943.449 646.314 939.574 643.105 936.574 638.605C936.074 637.855 935.824 637.064 935.824 636.23C935.824 634.98 936.283 633.897 937.199 632.98C938.199 631.98 939.324 631.48 940.574 631.48C941.908 631.48 943.033 631.939 943.949 632.855C944.033 633.022 944.324 633.314 944.824 633.73C945.324 634.064 945.908 634.48 946.574 634.98C947.324 635.397 948.158 635.772 949.074 636.105C950.074 636.439 951.074 636.605 952.074 636.605C954.074 636.605 955.741 636.189 957.074 635.355C958.491 634.522 959.616 633.522 960.449 632.355C961.283 631.105 961.866 629.814 962.199 628.48C962.616 627.064 962.824 625.855 962.824 624.855C962.824 622.772 962.491 620.689 961.824 618.605C961.158 616.522 960.283 614.439 959.199 612.355C958.199 610.272 957.074 608.147 955.824 605.98C954.658 603.73 953.574 601.397 952.574 598.98Z" fill="#E4B0B1"/>
<path d="M1004.95 605.774C1004.46 606.861 1004.42 608.099 1004.84 609.216C1005.27 610.333 1006.11 611.236 1007.2 611.728C1008.29 612.22 1009.53 612.26 1010.64 611.839C1011.76 611.417 1012.66 610.57 1013.15 609.482C1013.15 609.482 1013.15 609.482 1013.15 609.482C1016.74 601.352 1024.63 595.654 1033.56 592.433C1056.49 584.654 1083.47 587.445 1106.56 595.871C1117.65 600.103 1130.52 607.593 1131.13 616.591C1131.37 625.474 1118.58 633.31 1107.59 638.254C1101.79 640.935 1095.71 641.576 1091.38 638.687C1086.89 635.848 1083.96 629.877 1082.39 623.6C1079.28 610.789 1080.31 596.653 1083.44 583.382C1089.24 557.565 1108.21 529.344 1135.11 533.381C1141.3 534.151 1147 536.11 1152.9 539.042C1173.47 549.39 1193.17 563.276 1203.73 582.976C1214.69 602.523 1211.44 627.111 1198.53 645.528C1186.95 663.767 1166.34 674.543 1145 671.889C1135.47 670.95 1125.6 667.982 1117.34 663.691C1116.3 663.105 1115.07 662.956 1113.92 663.277C1112.77 663.597 1111.8 664.361 1111.21 665.401C1110.62 666.441 1110.48 667.67 1110.8 668.82C1111.12 669.97 1111.88 670.945 1112.92 671.531C1112.92 671.531 1112.92 671.531 1112.92 671.531C1122.92 676.714 1133.21 679.71 1144.13 680.847C1168.22 684.105 1193.46 670.802 1206 650.552C1220.34 630.414 1224.38 601.124 1211.69 578.765C1199.56 556.33 1178.35 541.836 1156.92 530.992C1150.3 527.706 1143.7 525.384 1136.19 524.446C1101.99 519.884 1080.75 554.01 1074.69 581.273C1071.33 595.711 1070.07 610.745 1073.66 625.81C1075.6 633.169 1078.84 641.193 1086.54 646.276C1094.38 651.45 1104.36 649.729 1111.3 646.456C1122.69 640.522 1138.72 634.82 1140.12 616.221C1137.31 598.156 1121.64 592.722 1109.78 587.469C1084.56 578.422 1056.88 575.206 1030.46 583.983C1020.21 587.656 1009.82 594.777 1004.95 605.774Z" fill="#E4B0B1"/>
</svg>
